<?xml version="1.0" encoding="UTF-8"?>
<!DOCTYPE svg PUBLIC "-//W3C//DTD SVG 1.1//EN" "http://www.w3.org/Graphics/SVG/1.1/DTD/svg11.dtd">
<svg xmlns="http://www.w3.org/2000/svg" version="1.1" width="298px" height="293px" style="shape-rendering:geometricPrecision; text-rendering:geometricPrecision; image-rendering:optimizeQuality; fill-rule:evenodd; clip-rule:evenodd" xmlns:xlink="http://www.w3.org/1999/xlink">
<g><path style="opacity:1" fill="none" d="M -0.5,-0.5 C 98.8333,-0.5 198.167,-0.5 297.5,-0.5C 297.5,97.1667 297.5,194.833 297.5,292.5C 198.167,292.5 98.8333,292.5 -0.5,292.5C -0.5,194.833 -0.5,97.1667 -0.5,-0.5 Z"/></g>
<g><path style="opacity:1" fill="#000000" d="M 132.5,18.5 C 144.171,18.3335 155.838,18.5001 167.5,19C 169.002,19.5831 170.335,20.4164 171.5,21.5C 172.647,34.121 172.814,46.7876 172,59.5C 170.992,61.259 169.492,62.4257 167.5,63C 155.833,63.6667 144.167,63.6667 132.5,63C 131.5,62.1667 130.5,61.3333 129.5,60.5C 128.353,47.879 128.186,35.2124 129,22.5C 130.102,21.051 131.269,19.7177 132.5,18.5 Z"/></g>
<g><path style="opacity:1" fill="#040404" d="M 81.5,36.5 C 91.6866,38.729 101.52,42.0623 111,46.5C 112.022,48.7017 112.522,51.0351 112.5,53.5C 111.997,61.5419 111.164,69.5419 110,77.5C 107.487,81.2115 103.987,82.3782 99.5,81C 97.9512,79.786 96.7845,78.286 96,76.5C 95.7221,72.8061 95.7221,69.1394 96,65.5C 80.6783,76.9902 68.5116,91.1568 59.5,108C 53.2395,109.879 49.5729,107.712 48.5,101.5C 56.7357,81.7326 69.7357,65.7326 87.5,53.5C 83.6425,52.5035 80.4758,50.5035 78,47.5C 76.518,42.774 77.6847,39.1074 81.5,36.5 Z"/></g>
<g><path style="opacity:1" fill="#040404" d="M 192.5,44.5 C 194.527,44.3379 196.527,44.5045 198.5,45C 217.01,53.6723 232.01,66.5057 243.5,83.5C 244.608,80.1636 246.274,77.1636 248.5,74.5C 256.469,71.7113 260.302,74.378 260,82.5C 257.221,90.8408 254.054,99.0074 250.5,107C 247.961,108.047 245.295,108.547 242.5,108.5C 236.831,108.03 231.164,107.53 225.5,107C 217.255,107.339 214.089,103.506 216,95.5C 217.87,92.9816 220.37,91.6482 223.5,91.5C 226.154,92.2675 228.821,92.4342 231.5,92C 220.01,76.6783 205.843,64.5116 189,55.5C 187.663,50.8721 188.83,47.2054 192.5,44.5 Z"/></g>
<g><path style="opacity:1" fill="#020202" d="M 143.5,91.5 C 163.725,89.486 173.558,98.486 173,118.5C 166.354,135.904 154.521,140.737 137.5,133C 124.22,120.255 124.22,107.589 137.5,95C 139.432,93.5415 141.432,92.3748 143.5,91.5 Z"/></g>
<g><path style="opacity:1" fill="#040404" d="M 37.5,124.5 C 59.6388,122.8 69.1388,132.8 66,154.5C 60.2836,166.606 50.7836,171.106 37.5,168C 21.657,159.137 18.4904,146.97 28,131.5C 31.0681,128.917 34.2348,126.584 37.5,124.5 Z"/></g>
<g><path style="opacity:1" fill="#040404" d="M 248.5,124.5 C 270.639,122.8 280.139,132.8 277,154.5C 271.284,166.606 261.784,171.106 248.5,168C 232.657,159.137 229.49,146.97 239,131.5C 242.068,128.917 245.235,126.584 248.5,124.5 Z"/></g>
<g><path style="opacity:1" fill="#010101" d="M 141.5,149.5 C 169.367,147.559 187.2,159.892 195,186.5C 195.667,190.833 195.667,195.167 195,199.5C 194.535,200.931 193.701,202.097 192.5,203C 165.253,204.649 137.92,204.982 110.5,204C 109.069,203.535 107.903,202.701 107,201.5C 103.82,184.38 108.987,170.213 122.5,159C 128.378,154.727 134.712,151.561 141.5,149.5 Z"/></g>
<g><path style="opacity:1" fill="#050505" d="M 52.5,184.5 C 60.5303,184.478 68.5303,184.978 76.5,186C 84.0607,186.277 86.894,190.11 85,197.5C 83,200.167 80.3333,201.5 77,201.5C 74.4905,200.907 71.9905,200.741 69.5,201C 80.9902,216.322 95.1568,228.488 112,237.5C 113.955,245.791 110.788,249.291 102.5,248C 83.9903,239.328 68.9903,226.494 57.5,209.5C 56.0227,212.591 54.3561,215.591 52.5,218.5C 43.7723,221.599 39.9389,218.599 41,209.5C 43.3333,203.167 45.6667,196.833 48,190.5C 48.8041,187.854 50.3041,185.854 52.5,184.5 Z"/></g>
<g><path style="opacity:1" fill="#050505" d="M 241.5,184.5 C 249.794,183.036 253.294,186.37 252,194.5C 243.328,213.01 230.494,228.01 213.5,239.5C 216.652,240.909 219.652,242.576 222.5,244.5C 225.301,253.101 222.301,256.935 213.5,256C 205.722,253.277 198.055,250.277 190.5,247C 188.986,244.413 188.32,241.58 188.5,238.5C 188.8,230.009 189.967,221.676 192,213.5C 199.329,209.367 203.829,211.367 205.5,219.5C 204.732,222.154 204.566,224.821 205,227.5C 220.456,215.896 232.623,201.562 241.5,184.5 Z"/></g>
<g><path style="opacity:1" fill="#000000" d="M 132.5,229.5 C 144.171,229.333 155.838,229.5 167.5,230C 169.002,230.583 170.335,231.416 171.5,232.5C 172.647,245.121 172.814,257.788 172,270.5C 170.992,272.259 169.492,273.426 167.5,274C 155.833,274.667 144.167,274.667 132.5,274C 131.5,273.167 130.5,272.333 129.5,271.5C 128.353,258.879 128.186,246.212 129,233.5C 130.102,232.051 131.269,230.718 132.5,229.5 Z"/></g>
</svg>
