<svg enable-background="new -4.5 0 32 32" height="32" viewBox="-4.5 0 32 32" width="32" xmlns="http://www.w3.org/2000/svg"><path d="m5.132 6.432h22.368l-2.112 22.72-9.088 2.592-9.088-2.592zm2.08-1.92v-4.256h1.44v1.408h1.28v-1.408h1.408v4.256h-1.408v-1.408h-1.28v1.408zm2.08 6.56.768 8.512.032-.064h9.6l-.32 3.616-3.072.864-3.104-.896-.192-2.176h-2.816l.384 4.353 5.728 1.632 5.729-1.632.8-8.544h-10.209l-.256-2.848h10.72l.257-2.816h-14.049zm2.688-9.376v-1.44h3.904v1.44h-1.248v2.816h-1.407v-2.816zm4.512 2.816v-4.256h1.504l.864 1.472.896-1.472h1.504v4.256h-1.377v-2.176l-1.023 1.6v-.032l-.961-1.504v2.112zm5.504 0v-4.256h1.408v2.816h1.983v1.44z"/></svg>