<svg height="512" width="512" xmlns="http://www.w3.org/2000/svg"><path d="m488.6980286 58.3113174h-186.46698v-52.3293747h-32.9675903l-269.2634583 46.631308v406.889801l266.0656738 46.5149536h36.1653748v-58.1437073h174.4893494c9.9427185-.4651489 20.9899902.5232849 29.4788818-5.6399536 6.744751-10.4077148 5.11026-23.4319763 5.6917419-35.1769714v-325.9537277c1.3373719-13.3730697-9.8200683-24.071476-23.1929931-22.7923279zm-318.1625672 216.992363c-13.1986542 6.7446594-28.315979 5.8143921-42.6774902 5.3492126l-.0580902 68.2025757-34.5954819-2.9072266.0580902-186.3505707c31.5720139 1.5117645 69.8305893-12.5008698 95.9952469 11.1635742 25.0600433 30.4091798 18.4315643 86.3434297-18.7222748 104.5424348zm313.571991 145.1295777h-181.8764038v-36.5171204h139.5449524v-23.2574463h-139.5449524v-29.0718689h139.5449524v-23.2575073h-139.4867859s-.0581665-22.7923279-.1161804-34.1885376c23.0248108 7.1517029 49.2477417 6.9772949 69.830658-6.8609619 22.2689209-13.1985931 33.8976746-38.3748169 35.8165283-63.4929352l-76.517334.0002441v-75.9359283l-29.0718384 5.8725281v-47.9714127h181.8764038zm-141.1804504-304.7340775c40.4099426 1.8605957 74.4287109 36.0208359 76.5800171 76.3144455h-76.5800171zm-215.1271286 75.3542557c11.4543228-.5232849 25.6414108-2.6164703 33.3745346 8.1401215 6.6283722 11.3961639 6.2795258 26.3972626.7558899 38.1422882-6.6283722 11.9776154-21.6294708 10.814743-33.2001038 12.2101746-1.2210541-19.4781342-1.104744-38.9562989-.9303207-58.4925843z"/></svg>